<svg xmlns="http://www.w3.org/2000/svg" xmlns:xlink="http://www.w3.org/1999/xlink" width="75%" height="75%" version="1.1" viewBox="0 0 654 654" xml:space="preserve" style="fill-rule:evenodd;clip-rule:evenodd;stroke-linejoin:round;stroke-miterlimit:2"><g transform="matrix(1,0,0,1,-185,-185)"><g id="Plus"><g id="Line"><g transform="matrix(1,0,0,1,0,7)"><circle cx="512" cy="214" r="36" style="fill:#ff524e"/></g><g transform="matrix(1,0,0,1,0,589)"><circle cx="512" cy="214" r="36" style="fill:#ff524e"/></g><g transform="matrix(1,0,0,1.95302,0,-196.946)"><rect width="72" height="298" x="476" y="214" style="fill:#ff524e"/></g></g><g id="Line1"><g transform="matrix(6.12323e-17,-1,1,6.12323e-17,0,1024) matrix(1,0,0,1,0,7)"><circle cx="512" cy="214" r="36" style="fill:#ff524e"/></g><g transform="matrix(6.12323e-17,-1,1,6.12323e-17,0,1024) matrix(1,0,0,1,0,589)"><circle cx="512" cy="214" r="36" style="fill:#ff524e"/></g><g transform="matrix(6.12323e-17,-1,1,6.12323e-17,0,1024) matrix(1,0,0,1.95302,0,-196.946)"><rect width="72" height="298" x="476" y="214" style="fill:#ff524e"/></g></g></g></g></svg>