<?xml version="1.0" encoding="UTF-8" standalone="no"?>
<!DOCTYPE svg PUBLIC "-//W3C//DTD SVG 1.1//EN" "http://www.w3.org/Graphics/SVG/1.1/DTD/svg11.dtd">
<svg width="75%" height="75%" viewBox="0 0 654 654" version="1.1" xmlns="http://www.w3.org/2000/svg" xmlns:xlink="http://www.w3.org/1999/xlink" xml:space="preserve" xmlns:serif="http://www.serif.com/" style="fill-rule:evenodd;clip-rule:evenodd;stroke-linejoin:round;stroke-miterlimit:2;">
    <g transform="matrix(1,0,0,1,-185,-185)">
        <g id="Plus">
            <g id="Line">
                <g transform="matrix(1,0,0,1,0,7)">
                    <circle cx="512" cy="214" r="36" style="fill:rgb(255,82,78);"/>
                </g>
                <g transform="matrix(1,0,0,1,0,589)">
                    <circle cx="512" cy="214" r="36" style="fill:rgb(255,82,78);"/>
                </g>
                <g transform="matrix(1,0,0,1.95302,0,-196.946)">
                    <rect x="476" y="214" width="72" height="298" style="fill:rgb(255,82,78);"/>
                </g>
            </g>
            <g id="Line1" serif:id="Line" transform="matrix(6.12323e-17,-1,1,6.12323e-17,0,1024)">
                <g transform="matrix(1,0,0,1,0,7)">
                    <circle cx="512" cy="214" r="36" style="fill:rgb(255,82,78);"/>
                </g>
                <g transform="matrix(1,0,0,1,0,589)">
                    <circle cx="512" cy="214" r="36" style="fill:rgb(255,82,78);"/>
                </g>
                <g transform="matrix(1,0,0,1.95302,0,-196.946)">
                    <rect x="476" y="214" width="72" height="298" style="fill:rgb(255,82,78);"/>
                </g>
            </g>
        </g>
    </g>
</svg>
